<svg xmlns="http://www.w3.org/2000/svg" viewBox="0 0 30 30" fill="currentColor"><rect x="3" y="3" width="7" height="7" fill="none" stroke="currentColor" stroke-width="0.75"/><rect x="12" y="3" width="7" height="7" fill="none" stroke="currentColor" stroke-width="0.75"/><rect x="21" y="3" width="7" height="7" fill="none" stroke="currentColor" stroke-width="0.75"/><rect x="3" y="12" width="7" height="7" fill="none" stroke="currentColor" stroke-width="0.75"/><rect x="12" y="12" width="7" height="7" fill="none" stroke="currentColor" stroke-width="0.75"/><rect x="21" y="12" width="7" height="7" fill="none" stroke="currentColor" stroke-width="0.75"/><rect x="3" y="21" width="7" height="7" fill="none" stroke="currentColor" stroke-width="0.75"/><rect x="12" y="21" width="7" height="7" fill="none" stroke="currentColor" stroke-width="0.75"/><rect x="21" y="21" width="7" height="7" fill="none" stroke="currentColor" stroke-width="0.75"/><circle cx="14" cy="6" r="0.7"/><circle cx="17" cy="8" r="0.7"/><circle cx="23" cy="5" r="0.7"/><circle cx="26" cy="8" r="0.7"/><circle cx="5" cy="15" r="0.7"/><circle cx="8" cy="17" r="0.7"/><circle cx="23" cy="14" r="0.7"/><circle cx="26" cy="17" r="0.7"/><circle cx="5" cy="24" r="0.7"/><circle cx="8" cy="26" r="0.7"/><circle cx="14" cy="23" r="0.7"/><circle cx="17" cy="26" r="0.7"/></svg>
